<svg xmlns="http://www.w3.org/2000/svg" width="100" height="100" baseProfile="tiny" viewBox="0 0 100 100">
  <path fill="none" d="M134.4 119.4l20.8 13.9v-12.4l-11.5-7.7m-11.4-7.7v9l6.6-4.5m19-6.3l-9.4 6.3 9.4 6.3 9.4-6.3m-6.8 10.9v12.4l20.8-13.9-9.2-6.2m-16.9-14.1V86.8l-20.8 13.8 9.3 6.2"/>
  <path fill="none" d="M187.6 98.4l.1.1.1.1.1.1.1.1.1.1s.1.1.1.2c0 0 0 .1.1.1 0 .1.1.1.1.2 0 0 0 .1.1.1 0 .1 0 .1.1.2V120c0 .1 0 .1-.1.2 0 0 0 .1-.1.1 0 .1-.1.1-.1.2 0 0 0 .1-.1.1 0 .1-.1.1-.1.2l-.1.1-.1.1-.1.1-.1.1-.1.1-28.3 19c-.4.3-1 .4-1.5.4s-1.1-.1-1.5-.4L128 121.4l-.1-.1-.1-.1-.1-.1-.1-.1-.1-.1s-.1-.1-.1-.2c0 0 0-.1-.1-.1 0-.1-.1-.1-.1-.2 0 0 0-.1-.1-.1 0-.1 0-.1-.1-.2V99.8c0-.1 0-.1.1-.2 0 0 0-.1.1-.1 0-.1.1-.1.1-.2 0 0 0-.1.1-.1 0-.1.1-.1.1-.2l.1-.1.1-.1.1-.1.1-.1.1-.1 28.3-18.9c.9-.6 2-.6 3 0l28.3 18.8z"/>
  <path fill="none" d="M183.5 114.5v-9l-6.6 4.5m4.4-9.4l-20.8-13.8v12.3l11.6 7.7"/>
  <g fill="#bbb">
    <path d="M50 0C22.4 0 0 22.4 0 50s22.4 50 50 50 50-22.4 50-50S77.6 0 50 0zm0 91.9C26.9 91.9 8.1 73.1 8.1 50S26.9 8.1 50 8.1 91.9 26.9 91.9 50 73.1 91.9 50 91.9z"/>
    <path d="M80.7 39.7s0-.1-.1-.1c0-.1-.1-.1-.1-.2 0 0 0-.1-.1-.1 0-.1-.1-.1-.1-.2l-.1-.1-.1-.1-.1-.2-.1-.1-.1-.1-28.3-19c-.9-.5-2-.5-3 0L20.3 38.4l-.1.1-.2.1-.1.1-.1.1-.1.2s-.1.1-.1.2c0 0 0 .1-.1.1 0 .1-.1.1-.1.2 0 0 0 .1-.1.1 0 .1 0 .1-.1.2v20.3c0 .1 0 .1.1.2 0 0 0 .1.1.1 0 .1.1.1.1.2 0 0 0 .1.1.1 0 .1.1.1.1.2l.1.1.1.1.1.1.1.1.1.1 28.3 18.9c.4.3 1 .4 1.5.4s1.1-.1 1.5-.4l28.3-18.9.1-.1.1-.1.1-.1.1-.1.1-.1s.1-.1.1-.2c0 0 0-.1.1-.1 0-.1.1-.1.1-.2 0 0 0-.1.1-.1 0-.1 0-.1.1-.2V40c0-.2 0-.2-.1-.3zm-28-12.9l20.8 13.9-9.3 6.2-11.5-7.7V26.8zm-5.4 0v12.4l-11.5 7.7-9.3-6.2 20.8-13.9zM24.4 45.6L31 50l-6.6 4.5v-8.9zm22.9 27.8L26.5 59.5l9.3-6.2L47.3 61v12.4zM50 56.3L40.6 50l9.4-6.3 9.4 6.3-9.4 6.3zm2.7 17.1V60.9l11.5-7.7 9.3 6.2-20.8 14zm22.9-18.9L69 50l6.6-4.5v9z"/>
  </g>
</svg>
