<svg xmlns="http://www.w3.org/2000/svg" width="100" height="100" baseProfile="tiny" viewBox="0 0 100 100">
  <g fill="#bbb">
    <path fill-rule="evenodd" d="M50 1.2c-27.6 0-50 22.4-50 50C0 73.3 14.3 92 34.2 98.6c2.5.5 3.4-1.1 3.4-2.4 0-1.2 0-5.1-.1-9.3-13.9 3-16.8-5.9-16.8-5.9-2.3-5.8-5.6-7.3-5.6-7.3-4.5-3.1.3-3 .3-3 5 .4 7.7 5.2 7.7 5.2 4.5 7.6 11.7 5.4 14.6 4.2.4-3.2 1.7-5.4 3.2-6.7-11.1-1.3-22.8-5.6-22.8-24.7 0-5.5 2-9.9 5.2-13.4-.5-1.3-2.2-6.3.5-13.2 0 0 4.2-1.3 13.8 5.1 4-1.1 8.3-1.7 12.5-1.7 4.2 0 8.5.6 12.5 1.7 9.5-6.5 13.7-5.1 13.7-5.1 2.7 6.9 1 12 .5 13.2 3.2 3.5 5.1 8 5.1 13.4 0 19.2-11.7 23.4-22.8 24.7 1.8 1.6 3.4 4.6 3.4 9.3 0 6.7-.1 12.1-.1 13.7 0 1.3.9 2.9 3.4 2.4C85.7 92.1 100 73.3 100 51.2c0-27.6-22.4-50-50-50z"/>
    <path d="M18.9 73c-.1.2-.5.3-.9.2-.4-.2-.6-.5-.4-.8.1-.3.5-.3.9-.2.4.2.6.6.4.8zm2.1 2.3c-.2.2-.7.1-1-.2-.3-.3-.4-.8-.1-1 .2-.2.7-.1 1 .2.2.3.3.8.1 1zm1.9 2.9c-.3.2-.8 0-1.1-.4-.3-.4-.3-1 0-1.2.3-.2.8 0 1.1.4.3.4.3.9 0 1.2zm2.7 2.7c-.3.3-.9.2-1.3-.2s-.6-1-.3-1.3c.3-.3.9-.2 1.3.2.5.5.6 1 .3 1.3zm3.8 1.7c-.1.4-.7.6-1.2.4-.6-.2-.9-.6-.8-1 .1-.4.7-.6 1.3-.4.4.1.8.6.7 1zm4.1.3c0 .4-.5.8-1.1.8-.6 0-1.1-.3-1.1-.7 0-.4.5-.8 1.1-.8.6-.1 1.1.2 1.1.7zm3.8-.7c.1.4-.3.8-.9.9-.6.1-1.1-.1-1.2-.5-.1-.4.3-.8.9-.9.6-.1 1.1.1 1.2.5zm0 0"/>
  </g>
</svg>
