<svg xmlns="http://www.w3.org/2000/svg" width="100" height="100" baseProfile="tiny" viewBox="0 0 100 100">
  <path fill="#bbb" d="M70.7 35.7h29.1v44.6c0 10.9-8.8 19.7-19.7 19.7H19.9C9.1 100 .3 91.2.3 80.3V35.7h28.9c-3 4.2-4.7 9.2-4.7 14.7 0 14.1 11.4 25.5 25.5 25.5s25.5-11.4 25.5-25.5c-.1-5.4-1.9-10.5-4.8-14.7zm29-16v12.9H68.1C63.5 27.9 57 25 49.9 25s-13.5 2.9-18.1 7.6H.3V19.7C.3 13 3.5 7.2 8.6 3.6v21.2h4V1.4c.9-.4 1.9-.7 2.8-.9v24.3h4V0h2.8v24.8h4V0H80c10.9 0 19.7 8.8 19.7 19.7zm-9-8.3c0-1.7-1.4-3.2-3.2-3.2H77c-1.7 0-3.2 1.4-3.2 3.2v10.9c0 1.7 1.4 3.2 3.2 3.2h10.6c1.7 0 3.2-1.4 3.2-3.2l-.1-10.9zM30.3 50.5c0-5.9 2.6-11.1 6.7-14.7 1.4-1.3 3.1-2.3 4.8-3.1 2.5-1.1 5.2-1.8 8.1-1.8 2.9 0 5.6.6 8.1 1.8 1.8.8 3.4 1.9 4.8 3.1 4.1 3.6 6.7 8.9 6.7 14.7 0 10.8-8.8 19.6-19.6 19.6s-19.6-8.8-19.6-19.6zm5.2 0C35.5 58.5 42 65 50 65s14.5-6.5 14.5-14.5C64.5 42.4 58 36 50 36s-14.5 6.4-14.5 14.5z"/>
</svg>
