<svg xmlns="http://www.w3.org/2000/svg" width="100" height="100" baseProfile="tiny" viewBox="0 0 100 100">
  <path fill="#bbb" d="M80.1 100H19.9M51.3 0c-27.2 0-41 19.6-41 35.9 0 9.9 3.7 18.7 11.8 21.9 1.3.5 2.5 0 2.9-1.4.3-1 .9-3.6 1.2-4.6.4-1.4.2-1.9-.8-3.2-2.3-2.7-3.8-6.3-3.8-11.3 0-14.5 10.9-27.5 28.3-27.5 15.4 0 23.9 9.4 23.9 22 0 16.6-7.3 30.5-18.2 30.5-6 0-10.5-5-9.1-11.1 1.7-7.3 5.1-15.1 5.1-20.4 0-4.7-2.5-8.6-7.7-8.6-6.1 0-11.1 6.4-11.1 14.9 0 5.4 1.8 9.1 1.8 9.1s-6.3 26.6-7.4 31.3c-2.2 9.3-.3 20.7-.2 21.8.1.7 1 .8 1.4.3.6-.7 7.9-9.8 10.4-18.8.7-2.6 4-15.8 4-15.8 2 3.8 7.8 7.2 14 7.2 18.5 0 31-16.8 31-39.4C87.7 15.9 73.3 0 51.3 0z"/>
</svg>
