<svg xmlns="http://www.w3.org/2000/svg" width="100" height="100" fill-rule="evenodd" stroke-miterlimit="1.414" viewBox="0 0 100 100" clip-rule="evenodd" stroke-linejoin="round">
  <path fill="#bbb" d="M96.24 99.99H3.76C1.692 99.99 0 98.295 0 96.226V3.762C0 1.692 1.692 0 3.76 0h92.48C98.31 0 100 1.693 100 3.762v92.465c0 2.07-1.69 3.762-3.76 3.762zM69.975 65.764c0 2.737-2.224 4.964-4.97 4.964h-16.36l14.728-9.933h1.632c2.746 0 4.97 2.223 4.97 4.968zM31.22 70.73v-9.936h9.042l-5.854 9.935H31.22zm49.545-22.827H27.99L60.956 25.67 50.92 42.702c-.038.076-.066.16-.066.255 0 .29.237.527.53.527v.002h3.99v-.005h9.47c.055.01.107.01.16.01 5.086 0 9.208-4.12 9.208-9.202 0-4.685-3.503-8.555-8.03-9.132l6.725-11.42c.063-.09.095-.19.095-.3 0-.29-.237-.53-.527-.53-.113 0-.216.038-.3.1V13l-6.218 4.193-.003.007-11.697 7.883H27.51c-.28 0-.513.22-.526.504V43.48l-11.397 7.687c-.16.093-.268.26-.268.456 0 .29.24.526.53.526h5.84l.01-.01h46.93L38.17 72.68l9.004-15.286c.058-.096.1-.192.1-.31 0-.287-.224-.52-.508-.527H27.51c-.29 0-.526.234-.526.527V74.44c0 .286.232.516.52.52h4.408l-5.687 9.664c-.058.084-.09.18-.09.293 0 .29.238.53.528.53.116 0 .22-.04.307-.1l15.388-10.38h22.646c5.086 0 9.208-4.12 9.208-9.202 0-3.815-2.317-7.09-5.626-8.486L81.01 48.9c.17-.09.284-.264.284-.47 0-.293-.235-.53-.53-.53zM31.22 29.313h16.764l-16.764 11.3v-11.3zm33.736.002l.048-.003c2.746 0 4.97 2.223 4.97 4.967 0 2.74-2.224 4.96-4.97 4.96h-7.138l5.86-9.934h1.23z"/>
</svg>
