<svg xmlns="http://www.w3.org/2000/svg" width="100" height="100" baseProfile="tiny" viewBox="0 0 100 100">
  <path fill="#bbb" d="M100 19c-3.7 1.6-7.6 2.7-11.8 3.2 4.2-2.5 7.5-6.6 9-11.4-4 2.4-8.4 4.1-13 5-3.7-4-9.1-6.5-15-6.5-13.2 0-23 12.4-20 25.2-17.1-.9-32.2-9-42.3-21.4-5.4 9.2-2.8 21.3 6.3 27.4-3.4-.1-6.5-1-9.3-2.6-.2 9.5 6.6 18.4 16.5 20.4-2.9.8-6.1 1-9.3.4 2.6 8.2 10.2 14.1 19.2 14.2-8.6 6.8-19.5 9.8-30.4 8.5 9.1 5.8 19.9 9.2 31.4 9.2 38.1 0 59.6-32.2 58.3-61 4.2-2.9 7.6-6.5 10.4-10.6z"/>
</svg>
