<?xml version="1.0" encoding="utf-8"?>
<!-- Generator: Adobe Illustrator 18.1.1, SVG Export Plug-In . SVG Version: 6.00 Build 0)  -->
<svg version="1.1" baseProfile="tiny" id="Layer_1" xmlns="http://www.w3.org/2000/svg" xmlns:xlink="http://www.w3.org/1999/xlink"
	 x="0px" y="0px" width="100px" height="100px" viewBox="0 0 100 100" xml:space="preserve">
<g>
	<polygon fill="none" points="134.4,119.4 155.2,133.3 155.2,120.9 143.7,113.2 	"/>
	<polygon fill="none" points="132.3,105.5 132.3,114.5 138.9,110 	"/>
	<polygon fill="none" points="157.9,103.7 148.5,110 157.9,116.3 167.3,110 	"/>
	<polygon fill="none" points="160.5,120.9 160.5,133.3 181.3,119.4 172.1,113.2 	"/>
	<polygon fill="none" points="155.2,99.1 155.2,86.8 134.4,100.6 143.7,106.8 	"/>
	<path fill="none" d="M187.6,98.4l0.1,0.1l0.1,0.1l0.1,0.1l0.1,0.1l0.1,0.1c0,0,0.1,0.1,0.1,0.2c0,0,0,0.1,0.1,0.1
		c0,0.1,0.1,0.1,0.1,0.2c0,0,0,0.1,0.1,0.1c0,0.1,0,0.1,0.1,0.2v0.1c0,0.1,0,0.1,0,0.2v0.1c0,0.1,0,0.2,0,0.3v18.9
		c0,0.1,0,0.2,0,0.3v0.1c0,0.1,0,0.1,0,0.2v0.1c0,0.1,0,0.1-0.1,0.2c0,0,0,0.1-0.1,0.1c0,0.1-0.1,0.1-0.1,0.2c0,0,0,0.1-0.1,0.1
		c0,0.1-0.1,0.1-0.1,0.2l-0.1,0.1l-0.1,0.1l-0.1,0.1l-0.1,0.1l-0.1,0.1l0,0l-28.3,19c-0.4,0.3-1,0.4-1.5,0.4s-1.1-0.1-1.5-0.4
		l-28.3-18.9l0,0l-0.1-0.1l-0.1-0.1l-0.1-0.1l-0.1-0.1l-0.1-0.1c0,0-0.1-0.1-0.1-0.2c0,0,0-0.1-0.1-0.1c0-0.1-0.1-0.1-0.1-0.2
		c0,0,0-0.1-0.1-0.1c0-0.1,0-0.1-0.1-0.2v-0.1c0-0.1,0-0.1,0-0.2v-0.1c0-0.1,0-0.2,0-0.3v-18.9c0-0.1,0-0.2,0-0.3v-0.1
		c0-0.1,0-0.1,0-0.2v-0.1c0-0.1,0-0.1,0.1-0.2c0,0,0-0.1,0.1-0.1c0-0.1,0.1-0.1,0.1-0.2c0,0,0-0.1,0.1-0.1c0-0.1,0.1-0.1,0.1-0.2
		l0.1-0.1l0.1-0.1l0.1-0.1l0.1-0.1l0.1-0.1l0,0l28.3-18.9c0.9-0.6,2-0.6,3,0L187.6,98.4L187.6,98.4z"/>
	<polygon fill="none" points="183.5,114.5 183.5,105.5 176.9,110 	"/>
	<polygon fill="none" points="181.3,100.6 160.5,86.8 160.5,99.1 172.1,106.8 	"/>
	<g>
		<path fill="#FF6347" d="M50,0C22.4,0,0,22.4,0,50s22.4,50,50,50s50-22.4,50-50S77.6,0,50,0z M50,91.9C26.9,91.9,8.1,73.1,8.1,50
			S26.9,8.1,50,8.1S91.9,26.9,91.9,50S73.1,91.9,50,91.9z"/>
		<path fill="#FF6347" d="M80.7,39.7c0,0,0-0.1-0.1-0.1c0-0.1-0.1-0.1-0.1-0.2c0,0,0-0.1-0.1-0.1c0-0.1-0.1-0.1-0.1-0.2L80.2,39
			l-0.1-0.1L80,38.7l-0.1-0.1l-0.1-0.1l-28.3-19c-0.9-0.5-2-0.5-3,0L20.3,38.4l-0.1,0.1L20,38.6l-0.1,0.1l-0.1,0.1L19.7,39
			c0,0-0.1,0.1-0.1,0.2c0,0,0,0.1-0.1,0.1c0,0.1-0.1,0.1-0.1,0.2c0,0,0,0.1-0.1,0.1c0,0.1,0,0.1-0.1,0.2v0.1c0,0.1,0,0.1,0,0.2v0.1
			c0,0.1,0,0.2,0,0.3v18.9c0,0.1,0,0.2,0,0.3v0.1c0,0.1,0,0.1,0,0.2v0.1c0,0.1,0,0.1,0.1,0.2c0,0,0,0.1,0.1,0.1
			c0,0.1,0.1,0.1,0.1,0.2c0,0,0,0.1,0.1,0.1c0,0.1,0.1,0.1,0.1,0.2l0.1,0.1l0.1,0.1l0.1,0.1l0.1,0.1l0.1,0.1l28.3,18.9
			c0.4,0.3,1,0.4,1.5,0.4c0.5,0,1.1-0.1,1.5-0.4l28.3-18.9l0.1-0.1l0.1-0.1l0.1-0.1l0.1-0.1l0.1-0.1c0,0,0.1-0.1,0.1-0.2
			c0,0,0-0.1,0.1-0.1c0-0.1,0.1-0.1,0.1-0.2c0,0,0-0.1,0.1-0.1c0-0.1,0-0.1,0.1-0.2v-0.1c0-0.1,0-0.1,0-0.2v-0.1c0-0.1,0-0.2,0-0.3
			V40.7c0-0.1,0-0.2,0-0.3v-0.1c0-0.1,0-0.1,0-0.2v-0.1C80.8,39.8,80.8,39.8,80.7,39.7z M52.7,26.8l20.8,13.9l-9.3,6.2l-11.5-7.7
			V26.8z M47.3,26.8v12.4l-11.5,7.7l-9.3-6.2L47.3,26.8z M24.4,45.6L31,50l-6.6,4.5V45.6z M47.3,73.4L26.5,59.5l9.3-6.2L47.3,61
			V73.4z M50,56.3L40.6,50l9.4-6.3l9.4,6.3L50,56.3z M52.7,73.4V60.9l11.5-7.7l9.3,6.2L52.7,73.4z M75.6,54.5L69,50l6.6-4.5V54.5z"
			/>
	</g>
</g>
</svg>
