<svg width="100%" height="100%" viewBox="0 0 100 100" version="1.1" xmlns="http://www.w3.org/2000/svg" xmlns:xlink="http://www.w3.org/1999/xlink" xml:space="preserve" style="fill-rule:evenodd;clip-rule:evenodd;stroke-linejoin:round;stroke-miterlimit:1.41421;">
  <path fill="#FF6347" d="M72.478,99.774C70.237,99.785 59.019,99.66 58.23,95.994C57.354,91.919 57.652,83.355 58.749,76.398C59.846,69.442 62.598,60.655 63.264,56.875C63.704,54.376 64.981,48.596 62.6,43.214C60.219,37.832 57.16,33.856 57.16,33.856C57.16,33.856 59.145,30.434 62.732,28.362C65.223,26.922 67.09,25.819 71.578,25.488L72.952,25.504C77.39,25.841 79.372,26.929 81.849,28.361C85.437,30.434 87.421,33.856 87.421,33.856C87.421,33.856 84.363,37.832 81.982,43.214C79.601,48.595 80.878,54.376 81.318,56.875C81.984,60.655 84.736,69.442 85.833,76.398C86.929,83.354 87.227,91.919 86.351,95.993C85.6,99.486 75.38,99.765 72.478,99.774ZM33.404,14.374C36.695,14.949 38.616,16.018 40.902,17.339C45.05,19.735 47.344,23.691 47.344,23.691C47.344,23.691 43.808,28.288 41.056,34.51C38.303,40.732 39.779,47.415 40.288,50.304C41.058,54.674 44.24,64.833 45.507,72.876C46.775,80.918 47.12,90.82 46.107,95.53C45.239,99.569 33.423,99.891 30.068,99.901C27.477,99.915 14.507,99.769 13.596,95.531C12.583,90.82 12.928,80.919 14.195,72.876C15.463,64.834 18.645,54.675 19.415,50.305C19.924,47.416 21.4,40.733 18.647,34.511C15.894,28.288 12.359,23.691 12.359,23.691C12.359,23.691 14.653,19.736 18.8,17.339C21.394,15.841 23.402,14.657 27.565,14.158L27.565,10.079C27.565,9.602 27.795,9.178 28.15,8.911C27.804,8.746 27.565,8.393 27.565,7.984L27.565,5.93C27.565,5.432 27.919,5.017 28.388,4.923C27.885,4.41 27.575,3.712 27.575,2.944C27.575,1.371 28.875,0.094 30.477,0.094C32.079,0.094 33.38,1.371 33.38,2.944C33.38,3.691 33.086,4.372 32.607,4.88C37.084,4.77 45.383,4.901 49.642,7.093C52.991,8.817 55.257,9.843 57.085,10.405C57.141,10.198 57.185,9.95 57.188,9.571C57.193,8.738 56.977,8.61 56.951,8.078C56.937,7.776 56.954,7.52 57.183,7.215C57.349,6.994 57.564,6.91 57.774,6.874C57.351,6.418 57.094,5.817 57.094,5.158C57.094,3.736 58.293,2.581 59.769,2.581C61.246,2.581 62.445,3.736 62.445,5.158C62.445,5.835 62.174,6.451 61.73,6.911C61.943,6.949 62.164,7.035 62.331,7.263C62.558,7.573 62.572,7.829 62.555,8.13C62.524,8.662 62.307,8.787 62.304,9.62C62.302,10.376 62.471,10.61 62.567,11.053C62.622,11.304 62.678,12.103 62.168,12.236C62.146,12.242 62.123,12.247 62.101,12.252C62.116,12.284 62.13,12.315 62.142,12.346C62.589,12.839 62.86,13.483 62.86,14.189C62.86,15.735 61.557,16.991 59.951,16.991C58.345,16.991 57.041,15.735 57.041,14.189C57.041,13.935 57.076,13.69 57.142,13.456C54.723,13.105 51.714,12.179 48.706,10.48C44.881,8.32 36.992,8.541 32.899,8.869C32.873,8.884 32.847,8.898 32.819,8.911C33.174,9.178 33.404,9.602 33.404,10.079L33.404,14.374Z"></path>
</svg>
