<?xml version="1.0" encoding="utf-8"?>
<!-- Generator: Adobe Illustrator 18.1.1, SVG Export Plug-In . SVG Version: 6.00 Build 0)  -->
<svg version="1.1" baseProfile="tiny" id="Layer_1" xmlns="http://www.w3.org/2000/svg" xmlns:xlink="http://www.w3.org/1999/xlink"
	 x="0px" y="0px" width="100px" height="100px" viewBox="0 0 100 100" xml:space="preserve">
<g>
	<path fill-rule="evenodd" fill="#F2634B" d="M50,1.2c-27.6,0-50,22.4-50,50c0,22.1,14.3,40.8,34.2,47.4c2.5,0.5,3.4-1.1,3.4-2.4
		c0-1.2,0-5.1-0.1-9.3c-13.9,3-16.8-5.9-16.8-5.9c-2.3-5.8-5.6-7.3-5.6-7.3c-4.5-3.1,0.3-3,0.3-3c5,0.4,7.7,5.2,7.7,5.2
		c4.5,7.6,11.7,5.4,14.6,4.2c0.4-3.2,1.7-5.4,3.2-6.7c-11.1-1.3-22.8-5.6-22.8-24.7c0-5.5,2-9.9,5.2-13.4c-0.5-1.3-2.2-6.3,0.5-13.2
		c0,0,4.2-1.3,13.8,5.1c4-1.1,8.3-1.7,12.5-1.7c4.2,0,8.5,0.6,12.5,1.7c9.5-6.5,13.7-5.1,13.7-5.1c2.7,6.9,1,12,0.5,13.2
		c3.2,3.5,5.1,8,5.1,13.4c0,19.2-11.7,23.4-22.8,24.7c1.8,1.6,3.4,4.6,3.4,9.3c0,6.7-0.1,12.1-0.1,13.7c0,1.3,0.9,2.9,3.4,2.4
		C85.7,92.1,100,73.3,100,51.2C100,23.6,77.6,1.2,50,1.2z"/>
	<path fill="#F2634B" d="M18.9,73c-0.1,0.2-0.5,0.3-0.9,0.2c-0.4-0.2-0.6-0.5-0.4-0.8c0.1-0.3,0.5-0.3,0.9-0.2
		C18.9,72.4,19.1,72.8,18.9,73L18.9,73z M18.3,72.6"/>
	<path fill="#F2634B" d="M21,75.3c-0.2,0.2-0.7,0.1-1-0.2c-0.3-0.3-0.4-0.8-0.1-1c0.2-0.2,0.7-0.1,1,0.2
		C21.1,74.6,21.2,75.1,21,75.3L21,75.3z M20.5,74.8"/>
	<path fill="#F2634B" d="M22.9,78.2c-0.3,0.2-0.8,0-1.1-0.4c-0.3-0.4-0.3-1,0-1.2c0.3-0.2,0.8,0,1.1,0.4
		C23.2,77.4,23.2,77.9,22.9,78.2L22.9,78.2z M22.9,78.2"/>
	<path fill="#F2634B" d="M25.6,80.9c-0.3,0.3-0.9,0.2-1.3-0.2c-0.4-0.4-0.6-1-0.3-1.3c0.3-0.3,0.9-0.2,1.3,0.2
		C25.8,80.1,25.9,80.6,25.6,80.9L25.6,80.9z M25.6,80.9"/>
	<path fill="#F2634B" d="M29.4,82.6c-0.1,0.4-0.7,0.6-1.2,0.4c-0.6-0.2-0.9-0.6-0.8-1c0.1-0.4,0.7-0.6,1.3-0.4
		C29.1,81.7,29.5,82.2,29.4,82.6L29.4,82.6z M29.4,82.6"/>
	<path fill="#F2634B" d="M33.5,82.9c0,0.4-0.5,0.8-1.1,0.8c-0.6,0-1.1-0.3-1.1-0.7c0-0.4,0.5-0.8,1.1-0.8
		C33,82.1,33.5,82.4,33.5,82.9L33.5,82.9z M33.5,82.9"/>
	<path fill="#F2634B" d="M37.3,82.2c0.1,0.4-0.3,0.8-0.9,0.9c-0.6,0.1-1.1-0.1-1.2-0.5c-0.1-0.4,0.3-0.8,0.9-0.9
		C36.7,81.6,37.2,81.8,37.3,82.2L37.3,82.2z M37.3,82.2"/>
</g>
</svg>
