<?xml version="1.0" encoding="utf-8"?>
<!-- Generator: Adobe Illustrator 18.1.1, SVG Export Plug-In . SVG Version: 6.00 Build 0)  -->
<svg version="1.1" baseProfile="tiny" id="Layer_1" xmlns="http://www.w3.org/2000/svg" xmlns:xlink="http://www.w3.org/1999/xlink"
	 x="0px" y="0px" width="100px" height="100px" viewBox="0 0 100 100" xml:space="preserve">
<g>
	<path id="instagram-icon_1_" fill="#F2634B" d="M70.7,35.7h29.1v44.6c0,10.9-8.8,19.7-19.7,19.7H19.9C9.1,100,0.3,91.2,0.3,80.3
		V35.7h28.9c-3,4.2-4.7,9.2-4.7,14.7c0,14.1,11.4,25.5,25.5,25.5c14.1,0,25.5-11.4,25.5-25.5C75.4,45,73.6,39.9,70.7,35.7z
		 M99.7,19.7v12.9H68.1C63.5,27.9,57,25,49.9,25c-7.1,0-13.5,2.9-18.1,7.6H0.3V19.7C0.3,13,3.5,7.2,8.6,3.6v21.2h4V1.4
		c0.9-0.4,1.9-0.7,2.8-0.9v24.3h4V0c0.2,0,0.3,0,0.5,0h2.3v24.8h4V0h53.8C90.9,0,99.7,8.8,99.7,19.7z M90.7,11.4
		c0-1.7-1.4-3.2-3.2-3.2H77c-1.7,0-3.2,1.4-3.2,3.2v10.9c0,1.7,1.4,3.2,3.2,3.2h10.6c1.7,0,3.2-1.4,3.2-3.2L90.7,11.4L90.7,11.4z
		 M30.3,50.5c0-5.9,2.6-11.1,6.7-14.7c1.4-1.3,3.1-2.3,4.8-3.1c2.5-1.1,5.2-1.8,8.1-1.8c2.9,0,5.6,0.6,8.1,1.8
		c1.8,0.8,3.4,1.9,4.8,3.1c4.1,3.6,6.7,8.9,6.7,14.7c0,10.8-8.8,19.6-19.6,19.6C39.1,70.1,30.3,61.3,30.3,50.5z M35.5,50.5
		c0,8,6.5,14.5,14.5,14.5s14.5-6.5,14.5-14.5C64.5,42.4,58,36,50,36C42,36,35.5,42.4,35.5,50.5z"/>
</g>
</svg>
