<?xml version="1.0" encoding="utf-8"?>
<!-- Generator: Adobe Illustrator 18.1.1, SVG Export Plug-In . SVG Version: 6.00 Build 0)  -->
<svg version="1.1" baseProfile="tiny" id="Layer_1" xmlns="http://www.w3.org/2000/svg" xmlns:xlink="http://www.w3.org/1999/xlink"
	 x="0px" y="0px" width="100px" height="100px" viewBox="0 0 100 100" xml:space="preserve">
<g>
	<path id="instagram-icon_1_" fill="#F2634B" d="M80.1,100H19.9"/>
</g>
<g>
	<path id="pinterest-icon_1_" fill="#F2634B" d="M51.3,0C24.1,0,10.3,19.6,10.3,35.9c0,9.9,3.7,18.7,11.8,21.9
		c1.3,0.5,2.5,0,2.9-1.4c0.3-1,0.9-3.6,1.2-4.6c0.4-1.4,0.2-1.9-0.8-3.2c-2.3-2.7-3.8-6.3-3.8-11.3c0-14.5,10.9-27.5,28.3-27.5
		c15.4,0,23.9,9.4,23.9,22c0,16.6-7.3,30.5-18.2,30.5c-6,0-10.5-5-9.1-11.1c1.7-7.3,5.1-15.1,5.1-20.4c0-4.7-2.5-8.6-7.7-8.6
		c-6.1,0-11.1,6.4-11.1,14.9c0,5.4,1.8,9.1,1.8,9.1s-6.3,26.6-7.4,31.3c-2.2,9.3-0.3,20.7-0.2,21.8c0.1,0.7,1,0.8,1.4,0.3
		c0.6-0.7,7.9-9.8,10.4-18.8c0.7-2.6,4-15.8,4-15.8c2,3.8,7.8,7.2,14,7.2c18.5,0,31-16.8,31-39.4C87.7,15.9,73.3,0,51.3,0z"/>
</g>
</svg>
