<svg xmlns="http://www.w3.org/2000/svg" width="30" height="30" baseProfile="tiny" viewBox="0 0 30 30">
  <path fill="#BBB" d="M14.4 18c-4.3 2.1-8.8 4.2-10 4.8-2.3 1-4.4-1.9-4.4-1.9L10.3 16l4.1 2zm15.1 5.5c-1.2 2.5-4.4 3.5-7.2 2.1-2.4-1.2-3.7-3.7-3.1-6 .3-1.3-.4-1.5-1.4-2L.1 9s2.1-2.9 4.4-1.8c1.4.7 7.1 3.4 12 5.8l1.2-.6c1.1-.5 1.8-.7 1.4-2-.6-2.3.7-4.9 3.1-6 2.8-1.3 6-.4 7.2 2.2 1.2 2.5-.1 5.6-2.8 6.9-2 1-3.5.2-5.5 1.2l-.6.3c.2.1.5.2.7.3 2 1 3.4.2 5.5 1.2 2.8 1.4 4.1 4.5 2.8 7zm-7.7-13.3c.6 1.3 2.3 1.7 3.9 1 1.5-.7 2.3-2.4 1.7-3.6-.6-1.3-2.3-1.7-3.9-1s-2.4 2.4-1.7 3.6zm-4.6 4.6c0-.5-.4-.9-.9-.9s-.9.4-.9.9.4.9.9.9.9-.4.9-.9zm8.5 4c-1.5-.7-3.3-.3-3.9 1-.6 1.3.1 2.9 1.6 3.6 1.5.7 3.3.3 3.9-1 .6-1.3-.1-2.9-1.6-3.6z"/>
</svg>
