<?xml version="1.0" encoding="utf-8"?>
<!-- Generator: Adobe Illustrator 18.1.1, SVG Export Plug-In . SVG Version: 6.00 Build 0)  -->
<svg version="1.1" baseProfile="tiny" id="Layer_1" xmlns="http://www.w3.org/2000/svg" xmlns:xlink="http://www.w3.org/1999/xlink"
	 x="0px" y="0px" width="30px" height="30px" viewBox="0 0 30 30" xml:space="preserve">
<g>
	<path id="cut-icon_1_" fill="#BBBBBB" d="M14.4,18c-4.3,2.1-8.8,4.2-10,4.8C2.1,23.8,0,20.9,0,20.9L10.3,16L14.4,18z M29.5,23.5
		c-1.2,2.5-4.4,3.5-7.2,2.1c-2.4-1.2-3.7-3.7-3.1-6c0.3-1.3-0.4-1.5-1.4-2L0.1,9c0,0,2.1-2.9,4.4-1.8c1.4,0.7,7.1,3.4,12,5.8
		l1.2-0.6c1.1-0.5,1.8-0.7,1.4-2c-0.6-2.3,0.7-4.9,3.1-6c2.8-1.3,6-0.4,7.2,2.2c1.2,2.5-0.1,5.6-2.8,6.9c-2,1-3.5,0.2-5.5,1.2
		c-0.2,0.1-0.4,0.2-0.6,0.3c0.2,0.1,0.5,0.2,0.7,0.3c2,1,3.4,0.2,5.5,1.2C29.5,17.9,30.8,21,29.5,23.5z M21.8,10.2
		c0.6,1.3,2.3,1.7,3.9,1c1.5-0.7,2.3-2.4,1.7-3.6c-0.6-1.3-2.3-1.7-3.9-1C21.9,7.3,21.1,9,21.8,10.2z M17.2,14.8
		c0-0.5-0.4-0.9-0.9-0.9c-0.5,0-0.9,0.4-0.9,0.9c0,0.5,0.4,0.9,0.9,0.9C16.8,15.7,17.2,15.3,17.2,14.8z M25.7,18.8
		c-1.5-0.7-3.3-0.3-3.9,1c-0.6,1.3,0.1,2.9,1.6,3.6c1.5,0.7,3.3,0.3,3.9-1C27.9,21.1,27.2,19.5,25.7,18.8z"/>
</g>
</svg>
