<?xml version="1.0" standalone="no"?>
<!DOCTYPE svg PUBLIC "-//W3C//DTD SVG 1.1//EN" "http://www.w3.org/Graphics/SVG/1.1/DTD/svg11.dtd">
<svg width="100%" height="100%" viewBox="0 0 100 100" version="1.1" xmlns="http://www.w3.org/2000/svg" xmlns:xlink="http://www.w3.org/1999/xlink" xml:space="preserve" style="fill-rule:evenodd;clip-rule:evenodd;stroke-linejoin:round;stroke-miterlimit:1.41421;">
    <g transform="matrix(1.61253,0,0,1.61231,0,0)">
        <path d="M59.683,62.016L2.332,62.016C1.049,62.016 0,60.966 0,59.683L0,2.333C0,1.05 1.049,0 2.332,0L59.683,0C60.966,0 62.015,1.05 62.015,2.333L62.015,59.683C62.015,60.966 60.966,62.016 59.683,62.016ZM43.394,40.789C43.394,42.487 42.015,43.868 40.312,43.868L30.167,43.868L39.3,37.708L40.312,37.708C42.015,37.708 43.394,39.087 43.394,40.789ZM19.361,43.868L19.361,37.706L24.968,37.706L21.338,43.868L19.361,43.868ZM50.086,29.711L17.357,29.711L37.802,15.921L31.577,26.485C31.554,26.532 31.537,26.584 31.537,26.643C31.537,26.823 31.684,26.97 31.866,26.97L31.866,26.971L34.339,26.971L34.339,26.968L40.212,26.968C40.247,26.97 40.279,26.971 40.312,26.971C43.466,26.971 46.022,24.414 46.022,21.261C46.022,18.355 43.85,15.955 41.042,15.597L45.213,8.513C45.252,8.458 45.272,8.395 45.272,8.328C45.272,8.147 45.125,8 44.945,8C44.875,8 44.811,8.022 44.759,8.06L44.759,8.058L40.903,10.659L40.901,10.664L33.647,15.554L17.06,15.554C16.886,15.554 16.742,15.692 16.734,15.866L16.734,26.964L9.666,31.732C9.567,31.79 9.5,31.894 9.5,32.015C9.5,32.195 9.649,32.341 9.83,32.341L13.455,32.341L13.463,32.337L42.565,32.337L23.672,45.08L29.256,35.599C29.292,35.54 29.318,35.48 29.318,35.407C29.318,35.229 29.179,35.084 29.003,35.08L17.061,35.08C16.881,35.08 16.734,35.225 16.734,35.407L16.734,46.169C16.734,46.347 16.878,46.49 17.056,46.492L19.79,46.492L16.263,52.486C16.227,52.538 16.207,52.598 16.207,52.668C16.207,52.848 16.355,52.996 16.535,52.996C16.607,52.996 16.671,52.971 16.725,52.935L26.268,46.497L40.312,46.497C43.466,46.497 46.022,43.941 46.022,40.789C46.022,38.423 44.585,36.391 42.533,35.526L50.238,30.331C50.344,30.276 50.414,30.167 50.414,30.039C50.414,29.858 50.268,29.711 50.086,29.711ZM19.361,18.18L29.757,18.18L19.361,25.19L19.361,18.18ZM40.282,18.182C40.291,18.182 40.304,18.18 40.312,18.18C42.015,18.18 43.394,19.559 43.394,21.261C43.394,22.964 42.015,24.343 40.312,24.343C40.304,24.343 40.291,24.342 40.282,24.342L35.886,24.343L39.519,18.182L40.282,18.182Z" style="fill:rgb(255,99,71);"/>
    </g>
</svg>
