<?xml version="1.0" encoding="utf-8"?>
<!-- Generator: Adobe Illustrator 18.1.1, SVG Export Plug-In . SVG Version: 6.00 Build 0)  -->
<svg version="1.1" baseProfile="tiny" id="Layer_1" xmlns="http://www.w3.org/2000/svg" xmlns:xlink="http://www.w3.org/1999/xlink"
	 x="0px" y="0px" width="100px" height="100px" viewBox="0 0 100 100" xml:space="preserve">
<g>
	<path id="twitter-icon_1_" fill="#F2634B" d="M100,19c-3.7,1.6-7.6,2.7-11.8,3.2c4.2-2.5,7.5-6.6,9-11.4c-4,2.4-8.4,4.1-13,5
		c-3.7-4-9.1-6.5-15-6.5c-13.2,0-23,12.4-20,25.2c-17.1-0.9-32.2-9-42.3-21.4c-5.4,9.2-2.8,21.3,6.3,27.4c-3.4-0.1-6.5-1-9.3-2.6
		c-0.2,9.5,6.6,18.4,16.5,20.4c-2.9,0.8-6.1,1-9.3,0.4c2.6,8.2,10.2,14.1,19.2,14.2c-8.6,6.8-19.5,9.8-30.4,8.5
		c9.1,5.8,19.9,9.2,31.4,9.2c38.1,0,59.6-32.2,58.3-61C93.8,26.7,97.2,23.1,100,19z"/>
</g>
</svg>
