<?xml version="1.0" encoding="utf-8"?>
<svg version="1.1" id="Layer_1" xmlns="http://www.w3.org/2000/svg" xmlns:xlink="http://www.w3.org/1999/xlink" x="0px" y="0px"
width="100px" height="100px" viewBox="0 0 100 100" style="enable-background:new 0 0 100 100;" xml:space="preserve">
  <symbol  id="astronaut" viewBox="-19 -21.9 38 43.7">
    <path fill="#ff6347" d="M18.9-6.7c-0.8-1.6-2.8-2.3-3-2.4c0,0,0,0-0.1,0c-0.5-1-1.6-1.7-2.7-1.8c-1.4-0.1-2.8-0.5-4.2-1.3
    c-0.1,0-0.2,0-0.2,0l-2-2.6c-0.1-1.5-0.8-3-2.2-4.2c-0.7-0.6-1.4-1.1-2.2-1.4l-1-1.3c-0.1-0.2-0.4-0.2-0.6-0.2l-10.3,4.4
    c-0.1,0-0.2,0-0.3,0c-0.2,0.1-0.3,0.3-0.3,0.5v4.2c-0.2,0.1-0.5,0.2-0.7,0.4C-11.2-12.2-18.4-7-19,1.2c-0.1,0.9,0.2,1.7,0.8,2.4
    c0.1,0.1,0.2,0.2,0.3,0.3c0.2,0,0.3,0.1,0.4,0.1c0.1,1.6,1.4,3,1.7,3.3c0.3,0.3,0.6,0.4,0.9,0.4c0.1,0,0.5-0.2,0.7-0.3
    c0.3,0.2,0.7,0.3,1,0.2c0.3-0.1,0.5-0.2,0.7-0.4c0.4-0.4,0.5-1,0.2-1.5c0-0.1-0.1-0.2-0.2-0.3c0,0-0.1-0.1-0.2-0.1
    c-0.1-0.1-0.6-0.7-0.7-1.3c0.1,0,0.1-0.1,0.2-0.1c0.1,0.2,0.2,0.4,0.3,0.6c0.2,0.5,0.9,1,1.6,0.7h0.1c0.3-0.1,0.6-0.3,0.8-0.6
    c0.1-0.3,0.2-0.7,0.1-1c-0.4-1.1-1.3-2-2-2.5C-12-1-11-2.7-10-4.1v1.4c0,0.1,0,0.2,0.1,0.3L-9.5-2c0.6,3.1,1.6,10.2-1.7,14.8
    c-0.5,0.7-0.7,1.6-0.5,2.5l0,0c0,0.1-0.1,0.1-0.1,0.2c-0.3,1.7-0.4,4.1,0.7,5.4c0.5,0.6,1.3,0.9,2.2,0.9c0.4,0.1,0.7,0,1,0
    c0.7-0.2,1.3-0.5,1.7-1.1c1-1.3,0.7-3.4,0.5-4.1c0.7-1,1.2-2.1,1.7-3.3c0.1-0.1,0.1-0.2,0.1-0.3c0.9-2.2,1.4-4.7,1.5-7.3
    c0.2,1.7,0.1,3.3-0.3,4.8c-0.1,0.3-0.1,0.6-0.1,0.9c-0.1,0.1-0.1,0.2-0.2,0.3c-0.5,2-0.5,3.6,0.2,4.6c0.4,0.7,1.1,1.1,2,1.2
    c0.6,0.2,1.1,0.2,1.5,0.1c0.5-0.1,0.9-0.3,1.3-0.7c1.1-1,1.3-2.7,1.2-3.7c0.2-0.3,0.3-0.6,0.4-0.9c0.9-3.4,0.7-7.1-0.4-11l2.2-1.4
    c0.1-0.1,0.2-0.2,0.2-0.3l1.6-5.1c1.7,0.7,3.5,1.2,5.3,1.3c0.2,0.3,0.4,0.5,0.7,0.7c0.3,0.2,0.7,0.2,1.1,0.1
    c0.3-0.1,0.6-0.3,0.8-0.6c0.1-0.1,0.1-0.2,0.2-0.3v0.1c0,0.6,0.7,1.1,1.5,0.9c0.3-0.1,0.6-0.2,0.8-0.5s0.3-0.6,0.2-0.9h0.1
    c0.1,0,0.2-0.1,0.3-0.1C18.9-5.2,19.2-6,18.9-6.7z M1.7-19.5L1.7-19.5c0.5,0.2,1,0.4,1.5,0.7c-1.8,0.5-4.7,1.8-6.1,5.2
    c-0.3-0.4-0.6-0.8-0.8-1.2C-4.2-15.5-4.8-17-3.9-18C-3-18.9-2-19.5-1-19.8C-0.1-20,0.8-19.9,1.7-19.5L1.7-19.5z M-4.6-14.2
    c1.4,2.4,4.3,4.8,6.8,5.1l-3.9,1.9l-2.3-3l-4.9-6.5l4.1-1.7C-5.6-17.4-5.5-15.9-4.6-14.2z M5.4-10.6c0.6-0.8,1-1.7,1.2-2.7l1.2,1.5
    L5.4-10.6z M4-10.6c-0.2,0.3-0.5,0.4-0.9,0.5C1.7-9.8-0.5-11-2.2-12.7c1.2-3.9,4.7-5,6.1-5.3C6.1-15.8,6.1-12.9,4-10.6z M0.7-20.8
    L0.7-20.8L0.7-20.8L0.7-20.8z M-17.5-0.1c0.5-0.4,1.4-0.9,2.7-0.3c0.1,0,0.2,0,0.3,0c0.2,0,0.3-0.1,0.4-0.3c0.1-0.3,0-0.5-0.3-0.7
    c-1.2-0.5-2.2-0.3-2.9,0c0.6-2.5,1.9-4.6,3.1-6.3c0.3,0,1.7-0.2,2.7,1.2c0.1,0.2,0.3,0.2,0.5,0.2c0.1,0,0.1,0,0.2-0.1
    c0.2-0.2,0.3-0.5,0.1-0.7c-0.8-1.2-1.8-1.6-2.7-1.6c0.5-0.6,1-1.1,1.5-1.5h0.1c0.1,0,1.7-0.4,2.8,1.2c0.1,0.2,0.3,0.3,0.5,0.2
    c0.1,0,0.1,0,0.2-0.1C-8.1-9.1-8-9.4-8.2-9.6c-0.7-1.1-1.7-1.5-2.5-1.6c0.3-0.2,0.5-0.4,0.5-0.4c0.1-0.1,0.2-0.1,0.2-0.1
    c0.1,0,0.1,0,0.2,0c0.2,0,0.4-0.1,0.4-0.3c0.9-0.2,1.8,0.1,2.4,1c0.7,1,0.5,2.5-0.6,3.2c-0.1,0-4.8,3.5-5.6,8.5
    c-0.5-0.1-1.2,0.1-1.5,0.6c-0.2,0.4-0.2,0.9,0,1.3h-0.1c-0.3,0-0.5,0.1-0.7,0.2c-0.2-0.2-0.5-0.2-0.8-0.2c-0.3,0-0.7,0.1-0.9,0.4
    c-0.4-0.5-0.6-1.1-0.6-1.7C-17.7,0.7-17.6,0.3-17.5-0.1z M-15.1,6.5c-0.1-0.1-1.4-1.4-1.4-2.7c0-0.2,0.1-0.3,0.3-0.3
    c0.1,0,0.2,0.1,0.2,0.1c0,0.1,0,0.1,0,0.2c0,1.1,0.6,2.2,1.1,2.8C-15,6.6-15.1,6.6-15.1,6.5z M-13.1,6.5c-0.1,0.1-0.4,0.1-0.5,0
    c-0.1,0-1.4-1.3-1.4-2.7c0-0.1,0.1-0.3,0.3-0.3c0.2,0,0.4,0.2,0.4,0.4c0,0.9,0.7,1.9,1.3,2.2C-13,6.2-13,6.4-13.1,6.5z M-11.7,4.3
    c0,0-0.2-0.1-0.3-0.3c-0.3-0.9-1.1-1.7-1.7-1.9c-0.1-0.1-0.1-0.3,0-0.4c0-0.1,0.1-0.1,0.2-0.2c0-0.1,0.1-0.1,0.2,0c0,0,1.6,1,2,2.3
    c0,0.1,0,0.2,0,0.3C-11.3,4.2-11.5,4.3-11.7,4.3 M-7.1-7c1.5-1,1.9-3.1,0.8-4.6c-0.7-1-1.8-1.5-2.9-1.4v-2.5l7,9.2l-1,9.8l-5.6-6.1
    C-8.9-2.7-8.9-2.8-9-2.9V-5c0-0.1,0-0.2,0-0.2C-8-6.4-7.1-7-7.1-7z M-10.4,13.5c3-4.3,2.8-10.2,2.1-14.2l5,5.4
    c-0.1,3-0.5,5.6-1.4,7.9c-0.6,0.1-1.4,0-2.2-0.6c-0.2-0.2-0.5-0.1-0.7,0.1s-0.1,0.5,0.1,0.7c0.9,0.6,1.8,0.7,2.4,0.7
    c-0.2,0.4-0.4,0.7-0.5,1.1l0,0c-0.5,0.2-1.6,0.7-2.9-0.3c-0.2-0.2-0.5-0.1-0.7,0.1c-0.2,0.2-0.1,0.5,0.1,0.7c1,0.8,2,0.9,2.7,0.8
    c0,0.1-0.1,0.2-0.1,0.2c-0.4,0.5-0.9,0.9-1.5,1s-1.2,0-1.7-0.4s-0.8-0.9-1-1.5C-10.9,14.6-10.8,14-10.4,13.5z M-7,20.1
    c-0.4,0.5-1,0.7-1.8,0.8c-0.6,0-1.1-0.2-1.5-0.6c-0.6-0.6-0.7-1.8-0.6-3.4c0.2,0.2,0.4,0.4,0.6,0.6c0.6,0.5,1.5,0.8,2.5,0.6
    c0.4-0.1,0.9-0.3,1.3-0.6C-6.4,18.3-6.4,19.4-7,20.1z M1.4,16c-0.4,0.4-1.1,0.5-1.9,0.4c-0.6-0.1-1-0.3-1.3-0.8
    c-0.4-0.5-0.5-1.4-0.3-2.5c0.4,0.6,1.1,1.1,1.9,1.3c0.4,0.3,0.9,0.3,1.4,0.2c0.3-0.1,0.7-0.2,1-0.4l0,0C2.1,14.8,1.9,15.5,1.4,16z
     M3.3,8.7H3.2C2.8,8.9,1.6,9.3,0.4,8.3C0.2,8.1-0.1,8.2-0.3,8.4s-0.1,0.5,0.1,0.7c1.2,0.9,2.3,1,3.1,0.8c0.1,0,0.2-0.1,0.3-0.1
    c0,0.3-0.1,0.7-0.2,1c-0.1,0-0.1,0-0.1,0.1c-0.1,0-1.5,0.9-3-0.3c-0.2-0.2-0.5-0.1-0.7,0.1c-0.2,0.2-0.1,0.5,0.1,0.7
    c1.1,0.8,2.2,0.8,3.1,0.7c0.1,0,0.3-0.1,0.4-0.1c0,0.1-0.1,0.2-0.1,0.2c-0.2,0.1-0.4,0.3-0.4,0.5v0.1C2.1,13,2,13.2,1.7,13.3
    c-0.6,0.3-1.2,0.4-1.7,0.2c-0.6-0.2-1.1-0.5-1.4-1.1c-0.3-0.5-0.4-1.2-0.2-1.7c0.5-1.9,0.5-4.1,0.1-6.5l4-2.5
    C3.2,4.1,3.5,6.5,3.3,8.7z M4.8-0.9L2.4,0.6l0,0l-4.6,2.9l0,0h-0.1l1-9.8l9.1-4.3L6.6-6.7c-0.1,0-0.1,0.1-0.2,0.1
    c-0.1,0.1,0,0.3,0,0.4L4.8-0.9z M7.6-6.6L9-11c0.6,0.3,1.3,0.6,2,0.8c-0.8,0.5-1.3,1.3-1.5,1.8C9.4-8.1,9.6-7.9,9.8-7.8
    c0.2,0,0.2,0,0.3,0c0.2,0,0.3-0.2,0.4-0.3c0-0.1,0.6-1.6,2.5-1.6c0.1,0,0.2,0,0.3-0.1c0.7,0.1,1.2,0.4,1.6,0.9
    c-0.3,0.1-0.5,0.4-0.5,0.7c-0.2,0.5-0.1,1.1,0.4,1.5c0.1,0.1,0.3,0.1,0.4,0.2c-0.1,0.2-0.2,0.3-0.3,0.4c0-0.1-0.1-0.3-0.2-0.5
    c-0.2-0.6-0.9-1-1.6-0.9H13c-0.7,0.2-1.1,1-0.9,1.7c0,0.2,0.1,0.4,0.2,0.5C10.6-5.5,9.1-5.9,7.6-6.6z M14.4-4.5
    c-0.1,0.2-0.3,0.3-0.5,0.2c-0.4-0.3-0.7-0.7-1-1.6c-0.1-0.2,0-0.1,0.2-0.1s0.4-0.2,0.4-0.1c0.2,0.7,0.5,0.8,0.7,1
    c0.1,0.1,0.2,0.2,0.2,0.3C14.5-4.7,14.5-4.6,14.4-4.5z M16.9-4.3c-0.1,0.1-0.1,0.1-0.2,0.1c-0.2,0-0.4-0.1-0.4-0.3
    c-0.1-0.5-0.4-1-0.6-1.3c0.1-0.1,0.2-0.3,0.3-0.4c0.2,0.2,0.4,0.4,0.6,0.6c0.1,0.1,0.2,0.3,0.3,0.4C17-5,17.1-4.8,17.1-4.6
    C17-4.5,17-4.4,16.9-4.3z M17.9-5.8L17.9-5.8c-0.2,0-0.2,0-0.3,0v-0.1c-0.1-0.1-0.2-0.2-0.3-0.2c-0.3-0.5-0.7-0.8-1.1-1.1
    c0-0.2-0.2-0.3-0.4-0.4c-0.1,0-0.3,0-0.4,0h-0.1c-0.1-0.1-0.1-0.3-0.1-0.4c0.1-0.1,0.2-0.2,0.3-0.2s0.1,0,0.2,0
    c0.1,0,1.8,0.6,2.4,1.9C18.1-6.1,18.1-5.9,17.9-5.8z" />
  </symbol>
  <g>
    <polygon fill="none" points="134.4,119.4 155.2,133.3 155.2,120.9 143.7,113.2" />
    <polygon fill="none" points="132.3,105.5 132.3,114.5 138.9,110" />
    <polygon fill="none" points="157.9,103.7 148.5,110 157.9,116.3 167.3,110" />
    <polygon fill="none" points="160.5,120.9 160.5,133.3 181.3,119.4 172.1,113.2" />
    <polygon fill="none" points="155.2,99.1 155.2,86.8 134.4,100.6 143.7,106.8" />
    <path fill="none" d="M187.6,98.4l0.1,0.1l0.1,0.1l0.1,0.1l0.1,0.1l0.1,0.1c0,0,0.1,0.1,0.1,0.2c0,0,0,0.1,0.1,0.1
    c0,0.1,0.1,0.1,0.1,0.2c0,0,0,0.1,0.1,0.1c0,0.1,0,0.1,0.1,0.2v0.1c0,0.1,0,0.1,0,0.2v0.1c0,0.1,0,0.2,0,0.3v18.9
    c0,0.1,0,0.2,0,0.3v0.1c0,0.1,0,0.1,0,0.2v0.1c0,0.1,0,0.1-0.1,0.2c0,0,0,0.1-0.1,0.1c0,0.1-0.1,0.1-0.1,0.2c0,0,0,0.1-0.1,0.1
    c0,0.1-0.1,0.1-0.1,0.2l-0.1,0.1l-0.1,0.1l-0.1,0.1l-0.1,0.1l-0.1,0.1l0,0l-28.3,19c-0.4,0.3-1,0.4-1.5,0.4s-1.1-0.1-1.5-0.4
    L128,121.4l0,0l-0.1-0.1l-0.1-0.1l-0.1-0.1l-0.1-0.1l-0.1-0.1c0,0-0.1-0.1-0.1-0.2c0,0,0-0.1-0.1-0.1c0-0.1-0.1-0.1-0.1-0.2
    c0,0,0-0.1-0.1-0.1c0-0.1,0-0.1-0.1-0.2V120c0-0.1,0-0.1,0-0.2v-0.1c0-0.1,0-0.2,0-0.3v-18.9c0-0.1,0-0.2,0-0.3v-0.1
    c0-0.1,0-0.1,0-0.2v-0.1c0-0.1,0-0.1,0.1-0.2c0,0,0-0.1,0.1-0.1c0-0.1,0.1-0.1,0.1-0.2c0,0,0-0.1,0.1-0.1c0-0.1,0.1-0.1,0.1-0.2
    l0.1-0.1l0.1-0.1l0.1-0.1l0.1-0.1l0.1-0.1l0,0l28.3-18.9c0.9-0.6,2-0.6,3,0L187.6,98.4L187.6,98.4z" />
    <polygon fill="none" points="183.5,114.5 183.5,105.5 176.9,110" />
    <polygon fill="none" points="181.3,100.6 160.5,86.8 160.5,99.1 172.1,106.8" />
    <g>
      <use xlink:href="#astronaut"  width="38" height="43.7" x="-19" y="-21.9" transform="matrix(2.258 0 0 2.258 50 50)" style="overflow:visible;" />
    </g>
  </g>
</svg>
