<svg xmlns="http://www.w3.org/2000/svg" width="100" height="100" viewBox="0 0 100 100">
  <path fill="#FF6347" fill-rule="evenodd" d="M54.75 12.1c-12.472-.103-12.406-5.925.047-5.82 12.473.104 12.405 5.92-.048 5.82zm19.58 1.36c-6.168 1.746-13.16 2.246-19.553 2.193-6.394-.053-13.378-.668-19.515-2.514-1.76-.53-7.342-2.44-7.323-4.71.02-2.27 5.63-4.08 7.4-4.58 6.17-1.74 13.16-2.24 19.55-2.19 6.39.05 13.37.67 19.51 2.51 1.76.53 7.34 2.43 7.32 4.7-.02 2.26-5.63 4.08-7.4 4.58zM27.257 85.374c1.872 1.422 4.485 2.402 6.652 3.055 6.36 1.91 13.56 2.56 20.18 2.61 6.63.05 13.83-.48 20.23-2.29 2.17-.62 4.81-1.56 6.7-2.95l-.13 5.02c-.21 2.033-3.67 3.382-5.33 3.98-3.79 1.36-8.05 2.03-12.04 2.425-9.06.9-20.61.53-29.33-2.15-1.92-.59-6.47-2.195-7.068-4.36l.116-5.36zm54.373-72.49l-.128 4.977c-.205 2.04-3.666 3.39-5.326 3.99-6.068 2.18-13.77 2.82-20.2 2.86-6.81.05-14.644-.57-21.166-2.58-1.91-.59-6.474-2.2-7.064-4.36l.113-5.4c1.87 1.45 4.52 2.448 6.71 3.1 6.36 1.918 13.56 2.567 20.18 2.62 6.63.058 13.83-.473 20.23-2.282 2.16-.61 4.75-1.536 6.64-2.9zM53.5 37.2c6.722-.853 14.48-2.678 20.156-6.092l-.004 8.206C67 39.427 60.056 38.562 53.5 37.2zm20.144 16.13l.005-8.1c-3.24 1.35-7.41 2.052-10.84 2.4-4.76 4.738-12.72 8.386-19.15 9.894 7.77 1.084 17.53.947 24.69-1.627 1.72-.62 3.76-1.5 5.28-2.568zm-16.637 7.21c5.54-.382 11.895-1.63 16.637-4.365l-.005 7.078c-5.43.28-11.48-.776-16.64-2.713zm-21.77-14.588l-.002 9.89c6.072 1.525 18.713-4.184 23.552-7.933-7.844.32-15.843-.56-23.55-1.96zm.002-8.39c3.48.256 6.99.35 10.49.245 9.07 2.447 18.49 4.075 27.92 3.92v.862c-9.11 4.79-28.38 2.75-38.42.91v-5.94zm21.13-3.188c-6.94 1.18-14.15 1.294-21.13.767v-5.47c6.48 2.8 14.09 4.08 21.13 4.71zm19.39 43.46c1.67.633 5.31 2.24 5.3 4.025-.02 2.26-5.64 4.08-7.4 4.58-6.17 1.74-13.16 2.24-19.56 2.19-6.4-.06-13.38-.67-19.52-2.52-8.393-2.53-10.216-5.85-1.613-8.76.81 2.4 4.217 3.9 6.396 4.64 3.177 1.08 6.757 1.64 10.09 1.93 6.534.56 15.232.23 21.357-2.22 1.817-.73 4.166-1.95 4.938-3.88zm-2.1-52.718c-5.67 1.447-11.85 1.957-17.67 1.997-6.73.044-14.23-.544-20.75-2.355v2.27c8.44 3.938 20.01 5.183 29.3 5.382 2.45-.633 7-2.692 9.12-4.168v-3.126zm-22.25 35.53c-5.46-.166-10.89-1.022-16.18-2.32l-.01 9.88c8.47 3.107 17.51 4.178 26.48 3.225 3.893-.41 8.223-1.21 11.92-2.58v-3.18c-7.318.35-15.81-1.54-22.224-5.02zm6.76 13.467c-5.85 3.658-13.33 5.298-20.14 4.704-.82-.07-2.59-1.594-2.81-2.422V70.77c7.37 2.58 15.15 3.69 22.94 3.34zM73.63 71.4c-3.46 1.168-7.243 1.905-10.852 2.334-4.406 3.88-11.075 6.454-17.08 7.3 1.32.213 2.647.375 3.98.49 6.15.53 14.5.242 20.26-2.05 1.23-.487 3.55-1.5 3.7-2.995V71.4zM17.04 39.3c-1.814-2.2-6.08-6.253-9.27-4.396-3.667 2.137-1.4 9.052-.08 11.89 3.387 7.282 10.734 13.46 13.348 20.734 1.41 3.935-.24 8.062-4.985 7.354C12.57 74.362 8.86 71.35 6.407 69c-.86-.83.392-2.14 1.254-1.31 2.15 2.05 5.61 4.94 8.66 5.39 3.37.5 3.94-2.37 3.01-4.95-1.45-4.038-4.97-8.306-7.55-11.73-2.08-2.76-4.27-5.714-5.73-8.855-6.24-13.43 3.14-20.64 12.4-9.41 2.5 3.033 8.86 10.525 13.49 9.263v1.884c-5.5 1.026-11.85-6.307-14.89-9.994z"/>
</svg>
