<?xml version="1.0" standalone="no"?>
<!DOCTYPE svg PUBLIC "-//W3C//DTD SVG 20010904//EN"
 "http://www.w3.org/TR/2001/REC-SVG-20010904/DTD/svg10.dtd">
<svg version="1.0" xmlns="http://www.w3.org/2000/svg"
 width="480.000000pt" height="480.000000pt" viewBox="0 0 480.000000 480.000000"
 preserveAspectRatio="xMidYMid meet">
<metadata>
Created by potrace 1.11, written by Peter Selinger 2001-2013
</metadata>
<g transform="translate(0.000000,480.000000) scale(0.100000,-0.100000)"
fill="#000000" stroke="none">
<path d="M2754 4783 c-17 -30 -6 -48 49 -76 173 -89 348 -246 478 -427 38 -54
69 -102 69 -109 0 -6 3 -11 8 -11 4 0 16 -19 26 -43 11 -23 25 -49 32 -57 7
-8 12 -17 12 -20 0 -3 10 -27 22 -55 13 -27 26 -59 30 -70 4 -11 12 -31 18
-45 5 -14 15 -40 22 -57 12 -32 20 -38 50 -33 32 4 34 31 9 108 -6 20 -15 41
-20 47 -5 5 -9 15 -9 22 0 7 -23 59 -51 116 -28 56 -57 112 -63 124 -6 13 -14
23 -18 23 -5 0 -8 5 -8 11 0 6 -11 25 -25 43 -14 18 -25 38 -25 44 0 6 -3 12
-7 14 -5 2 -34 36 -66 76 -113 141 -265 271 -415 354 -75 42 -102 46 -118 21z"/>
<path d="M2616 4464 c-9 -8 -16 -19 -16 -24 0 -11 32 -43 90 -90 79 -64 350
-340 350 -356 0 -2 20 -32 45 -67 39 -52 83 -135 139 -256 14 -31 40 -35 62
-10 17 19 16 23 -16 102 -18 45 -39 89 -46 98 -8 8 -14 21 -14 27 0 7 -4 12
-10 12 -5 0 -10 7 -10 15 0 8 -9 24 -19 34 -11 11 -25 29 -31 41 -20 36 -167
209 -230 268 -146 139 -245 222 -265 222 -7 0 -21 -7 -29 -16z"/>
<path d="M1797 4345 c-45 -15 -83 -48 -103 -87 -32 -62 -21 -176 26 -255 17
-30 171 -234 195 -259 5 -6 24 -28 40 -48 17 -21 37 -46 45 -56 8 -10 29 -34
45 -55 17 -20 38 -46 48 -57 9 -12 17 -25 17 -30 0 -5 5 -6 10 -3 6 3 10 2 10
-3 0 -4 21 -33 46 -63 74 -86 157 -180 182 -206 13 -13 21 -23 19 -23 -3 0 17
-22 44 -50 27 -27 47 -50 45 -50 -2 0 20 -24 48 -53 89 -93 261 -279 268 -290
4 -6 4 -15 2 -19 -3 -4 -1 -8 4 -8 5 0 9 -11 8 -25 -1 -14 -4 -25 -8 -25 -34
3 -74 30 -119 82 -30 34 -64 72 -76 84 -13 13 -23 25 -23 27 0 3 -24 29 -52
59 -51 52 -228 242 -277 297 -12 14 -78 84 -145 155 -66 70 -120 132 -119 137
2 5 -1 8 -6 6 -7 -2 -147 137 -202 200 -49 57 -293 274 -394 350 -5 5 -30 18
-55 30 -119 59 -233 28 -303 -82 -74 -115 -44 -226 104 -385 28 -30 70 -77 93
-103 22 -27 54 -63 69 -80 16 -18 50 -56 75 -85 26 -30 61 -68 77 -86 27 -29
115 -128 162 -182 36 -43 149 -168 183 -204 19 -21 62 -68 94 -104 32 -37 75
-84 95 -105 20 -22 70 -76 111 -121 41 -46 118 -126 171 -179 87 -87 107 -115
115 -161 4 -24 -17 -29 -45 -12 -37 23 -396 383 -393 393 1 5 -2 8 -6 7 -13
-5 -82 65 -75 75 3 6 1 7 -4 4 -13 -8 -36 17 -25 27 4 4 2 6 -4 4 -14 -4 -125
108 -116 117 4 5 2 6 -3 2 -15 -8 -139 119 -129 134 4 8 3 9 -4 5 -7 -4 -95
77 -224 207 -229 230 -277 264 -372 271 -58 4 -150 -37 -182 -81 -36 -49 -49
-147 -30 -233 13 -56 46 -133 68 -154 13 -12 55 -58 93 -101 39 -44 75 -84 81
-90 5 -5 46 -50 90 -99 43 -49 90 -102 104 -116 14 -15 54 -60 90 -100 36 -41
76 -86 90 -100 14 -15 59 -64 100 -110 41 -46 100 -110 130 -143 30 -33 54
-64 52 -69 -1 -4 5 -8 13 -8 8 0 15 -3 15 -7 0 -5 24 -33 53 -64 108 -116 137
-151 137 -160 0 -6 5 -7 10 -4 6 3 10 2 10 -3 0 -5 17 -27 38 -48 41 -44 76
-94 65 -94 -4 0 0 -6 9 -13 17 -13 40 -72 31 -80 -7 -8 -63 14 -63 24 0 5 -5
9 -12 9 -12 0 -44 32 -183 184 -44 48 -100 109 -125 136 -108 114 -120 129
-120 139 0 6 -6 11 -12 11 -7 0 -33 23 -58 52 -72 82 -379 388 -389 388 -5 0
-11 6 -14 14 -8 20 -128 77 -169 80 -50 4 -100 -20 -127 -62 -21 -31 -25 -49
-25 -117 0 -95 17 -136 93 -218 28 -29 59 -64 71 -77 11 -14 35 -41 53 -61 60
-66 145 -164 167 -189 11 -14 44 -51 72 -83 29 -32 59 -66 67 -76 66 -75 142
-160 171 -191 19 -20 58 -63 85 -95 28 -31 77 -86 110 -121 73 -77 85 -91 85
-99 0 -11 256 -342 290 -375 8 -8 38 -42 65 -75 67 -80 318 -331 380 -380 28
-22 57 -48 66 -57 9 -10 21 -18 27 -18 6 0 12 -4 14 -8 5 -14 119 -94 212
-149 116 -68 215 -109 351 -144 100 -25 122 -28 245 -24 116 3 185 9 185 15 0
1 10 3 23 6 132 24 383 156 509 266 211 185 333 335 419 513 22 44 41 82 44
85 10 10 86 232 94 273 2 12 9 42 16 67 7 25 13 54 15 65 1 11 5 34 8 50 20
100 28 263 15 320 -41 179 -97 352 -151 465 -35 75 -35 75 -42 255 -3 99 -8
196 -10 215 -3 19 -7 61 -10 92 -2 32 -14 99 -26 150 -29 130 -31 147 -32 288
-1 142 5 192 35 287 17 54 21 93 21 193 0 131 -5 188 -16 207 -4 6 -9 25 -11
42 -2 17 -9 38 -16 46 -7 8 -9 15 -6 15 22 0 -78 116 -116 136 -85 44 -224 -2
-306 -102 -126 -152 -191 -530 -137 -789 3 -11 7 -36 9 -55 3 -19 12 -57 21
-85 17 -55 19 -223 3 -284 -27 -107 -69 -148 -140 -138 -48 6 -107 46 -238
158 -201 172 -271 238 -330 310 -40 49 -112 131 -152 172 -16 16 -28 30 -28
33 0 2 -21 25 -46 51 -25 27 -60 65 -77 86 -18 21 -43 51 -57 66 -14 15 -59
65 -100 110 -41 46 -94 103 -116 127 -23 24 -40 44 -39 44 2 0 -25 29 -59 65
-33 36 -95 102 -136 147 -253 276 -329 343 -415 370 -52 16 -129 18 -168 3z"/>
<path d="M425 2020 c-11 -13 -14 -26 -10 -42 7 -22 73 -137 84 -148 3 -3 31
-34 61 -70 63 -75 183 -195 260 -260 29 -25 58 -49 64 -55 6 -5 32 -26 56 -45
25 -19 51 -39 58 -45 7 -5 21 -17 31 -25 10 -8 25 -19 33 -25 8 -5 33 -23 56
-38 43 -31 78 -30 84 1 5 21 -20 62 -37 62 -7 0 -15 3 -17 8 -1 4 -30 27 -63
52 -176 132 -358 297 -470 425 -38 44 -112 156 -124 186 -12 34 -45 43 -66 19z"/>
<path d="M128 1862 c-35 -7 -31 -46 12 -128 94 -177 287 -402 460 -534 18 -14
42 -33 54 -42 32 -26 37 -30 91 -70 65 -47 192 -130 228 -147 15 -8 27 -18 27
-23 0 -5 4 -7 9 -3 5 3 12 1 16 -5 8 -13 48 -13 62 1 25 25 1 54 -99 114 -55
33 -107 66 -117 73 -9 7 -56 42 -106 78 -49 36 -96 72 -105 80 -8 7 -35 31
-60 51 -57 49 -197 189 -233 235 -78 97 -120 160 -159 235 -44 85 -51 92 -80
85z"/>
</g>
</svg>
